<svg width="327" height="122" xmlns="http://www.w3.org/2000/svg" xmlns:xlink="http://www.w3.org/1999/xlink" overflow="hidden"><defs><clipPath id="clip0"><rect x="313" y="598" width="327" height="122"/></clipPath><linearGradient x1="88.3918" y1="25.92" x2="92.9595" y2="110.158" gradientUnits="userSpaceOnUse" spreadMethod="reflect" id="fill1"><stop offset="0" stop-color="#C00000"/><stop offset="0.2" stop-color="#FFC000"/><stop offset="0.4" stop-color="#F2CC28"/><stop offset="0.59" stop-color="#92D050"/><stop offset="0.79" stop-color="#00B0F0"/><stop offset="1" stop-color="#9B54D0"/></linearGradient></defs><g clip-path="url(#clip0)" transform="translate(-313 -598)"><text fill="#A6C9D9" font-family="Britannic Bold,Britannic Bold_MSFontService,sans-serif" font-weight="700" font-size="761" transform="matrix(0.0742844 0 0 0.0744811 439.617 672)">HIBIO<tspan font-family="Calibri,Calibri_MSFontService,sans-serif" font-size="147" x="41.6001" y="214.82">Hyperspectral</tspan><tspan font-family="Calibri,Calibri_MSFontService,sans-serif" font-size="147" x="925.04" y="214.82">Imaging</tspan><tspan font-family="Calibri,Calibri_MSFontService,sans-serif" font-size="147" x="41.6001" y="389.361">and Biomedical</tspan><tspan font-family="Calibri,Calibri_MSFontService,sans-serif" font-size="147" x="1012.12" y="389.361">Research Laboratory</tspan></text><path d="M75.6832 26.8889C75.8466 27.257 75.626 26.9563 77.4675 29.0304 77.6012 29.1808 77.7082 29.5665 78.067 29.8373 78.529 30.2347 78.7549 30.3819 78.9591 30.908 79.2221 34.0616 77.8924 29.9108 80.4508 32.7857 80.6008 33.5049 80.8237 33.8332 80.8036 34.1654 81.0064 34.418 81.1817 34.5943 81.1268 34.9873 80.8289 36.8168 81.3548 38.7976 81.1067 39.7448 81.0384 40.1648 81.0584 41.084 80.6432 41.4486 80.8163 43.3427 80.837 42.1612 79.9323 43.7254 79.7696 44.1066 79.9843 44.3959 79.7154 44.8563 79.7837 45.2622 79.3209 45.4537 79.2065 45.7232 79.9486 47.9106 78.8031 51.052 79.8773 52.9613 79.8134 53.2136 79.9813 53.4314 80.1997 53.7832 80.4523 54.1858 80.6773 54.1932 80.7992 54.5901 80.9782 54.7896 81.3942 55.5906 81.6913 55.6608 81.8042 55.8612 82.2143 55.9855 82.553 56.1737 82.7848 57.0013 83.1064 57.5455 83.1985 57.8173 83.3798 57.9979 83.694 58.4529 83.798 58.6242 83.8939 59.1817 84.3046 59.3991 84.428 59.989 84.8402 60.9738 84.7526 60.7825 85.1032 62.1906 85.2347 62.4339 85.5214 62.8769 85.4412 63.2915 86.0979 71.0334 86.5488 70.6622 85.8446 75.86 85.8319 76.1311 85.7814 76.7254 85.6276 76.9906 85.4835 77.6413 84.1858 78.0328 84.0558 78.7549 82.9668 80.3557 83.541 79.3454 82.7603 80.5035 83.0849 82.0546 83.3337 80.4062 81.7426 82.2373 80.9269 83.102 81.0458 82.5055 80.4478 83.9867 80.1744 84.0796 79.7421 84.4101 79.6463 84.5899 79.2748 84.8581 79.2266 85.6069 78.8752 85.7502 78.5573 86.2175 77.9652 86.7508 77.5648 87.2203 77.2796 87.5895 76.8985 87.8361 76.7789 88.1028 76.4454 89.1591 76.591 89.0626 75.7761 90.1152 75.3875 90.8892 75.0035 91.0185 74.4657 91.5853 74.2491 91.8014 74.0606 92.1171 73.9721 92.7315 73.8326 92.9967 73.7318 93.2693 73.7403 93.5835 73.4368 93.8235 73.0108 94.3048 72.9692 94.7438 73.1139 95.1138 73.0257 95.7474 72.7677 96.1538 72.372 96.6359 72.7876 97.1559 72.5813 97.843 72.4973 98.0294 72.4709 98.7002 72.3646 98.9736 72.4903 100.464 72.2532 101.279 72.2992 102.894 72.0868 103.431 72.1135 103.954 72.0977 104.304 72.3325 104.871 71.8174 105.71 71.9264 106.272 71.2933 107.548 72.365 109.091 71.861 110.193 72.2994 110.327 73.2117 110.775 73.5543 110.66 82.7573 111.037 80.5139 110.858 86.0273 109.984 85.6648 109.552 86.1454 108.46 85.644 108.046 85.5348 107.629 85.3558 107.412 85.3216 107.224 85.8453 103.872 84.5758 101.981 85.1901 99.6771 85.0839 99.2321 84.2601 99.2522 84.5401 99.0427 84.8588 99.1073 86.6662 99.0969 87.1 99.0145 87.9215 98.7983 92.8251 98.6713 93.9995 98.0807 94.261 97.895 94.6183 97.6788 95.093 97.7412 96.1389 97.0392 97.5303 96.7109 99.2054 96.6789 100.503 95.8091 99.7877 96.6388 101.377 95.7222 101.792 95.0543 102.57 94.4942 102.687 94.2521 102.871 93.9319 103.127 93.9624 103.212 93.6637 103.439 93.2054 103.534 92.7077 103.706 92.5183 104.053 91.9262 103.992 90.4873 104.385 89.6836 103.969 88.2729 104.089 87.354 104.728 85.748 104.921 84.2266 105.378 83.9733 106.502 82.5738 106.576 82.377 107.095 81.6765 107.273 81.4128 105.865 77.5997 105.335 74.791 107.973 73.8207 108.264 73.6116 108.379 73.5535 108.79 73.4966 110.211 71.608 109.205 72.3591 110.593 70.8807 110.664 70.8063 111.118 70.4938 111.103 70.0138 111.306 69.5682 111.433 69.3058 111.319 68.8829 111.558 68.6519 111.548 68.3819 111.551 68.031 112.247 67.1897 110.808 65.7467 111.062 64.1405 110.931 63.8117 110.605 63.522 110.462 63.3336 109.627 61.4605 109.526 62.5028 108.678 61.1921 108.46 60.909 108.7 60.5915 108.356 60.3702 108.101 59.9685 107.448 59.0719 106.571 58.2287 106.055 56.6417 106.343 56.9828 105.357 56.336 103.898 53.4961 106.294 57.3714 104.682 54.1344 104.269 53.6046 104.556 52.5121 104.006 51.9328 103.804 51.4759 103.615 50.5942 103.362 50.289 102.764 48.3503 101.955 46.4809 102.474 44.1818 102.25 43.7176 102.134 43.5723 102.137 43.081 102.178 42.8117 101.689 39.1589 101.048 38.3836 99.3859 37.3112 100.698 37.6199 99.3094 37.079 99.1682 35.9751 100.395 38.3203 97.2027 34.1156 96.8342 33.5775 97.0154 33.2849 96.5876 33.0298 96.3461 32.8419 96.1575 32.7149 95.7259 32.517 93.4379 32.1995 98.2998 32.0473 92.863 30.9935 92.4715 30.9019 91.6826 30.4585 91.4322 30.2318 90.965 29.9292 90.4561 29.8724 90.0156 29.7489 88.5455 29.5994 87.8985 28.3053 87.1535 28.2255 86.6951 27.9196 85.7042 27.8819 85.1827 27.7727 84.997 27.6439 84.5208 27.5817 84.3366 27.5388 83.3211 27.0938 82.3064 27.5181 81.5346 27.1312 80.8883 27.2322 79.9761 26.9415 79.3016 26.9725 78.821 26.7761 78.3767 26.7346 77.9006 26.7686 77.6049 26.7325 77.3449 26.6044 77.0545 26.5348 76.7239 26.8571 75.8593 26.5214 75.6832 26.8889Z" fill="url(#fill1)" fill-rule="evenodd" transform="matrix(1 0 0 1.00265 307.354 605.448)"/><path d="M75.6832 26.8889C75.9558 27.2891 75.5057 27.1443 77.4675 29.0304 77.6183 29.4472 78.0046 29.5779 78.067 29.8373 78.5045 30.2714 78.7571 30.3794 78.9591 30.908 83.4318 33.4662 76.0554 30.2036 80.4508 32.7857 80.4285 33.3085 80.5176 33.617 80.8036 34.1654 80.8987 34.3225 81.1892 34.5463 81.1268 34.9873 80.5072 36.8017 80.872 37.6178 81.1067 39.7448 81.2486 40.2044 80.9173 41.1351 80.6432 41.4486 79.9961 44.2829 80.7836 42.6919 79.9323 43.7254 80.0147 43.9628 79.9449 44.5337 79.7154 44.8563 79.6953 45.0118 79.0936 45.4965 79.2065 45.7232 78.1977 47.0932 78.3582 50.0671 79.8773 52.9613 79.9612 53.1415 79.8862 53.591 80.1997 53.7832 80.1819 54.1071 80.684 54.4025 80.7992 54.5901 81.2278 54.7488 81.1542 55.4615 81.6913 55.6608 82.0709 55.955 82.2715 55.8491 82.553 56.1737 82.4728 56.7216 83.3263 57.1189 83.1985 57.8173 83.4511 58.2003 83.7289 58.1341 83.798 58.6242 83.9317 58.8281 83.9741 59.3449 84.428 59.989 84.8648 60.8731 84.575 60.7473 85.1032 62.1906 85.2852 62.7278 85.3283 63.0255 85.4412 63.2915 85.0646 73.0239 85.433 68.575 85.8446 75.86 85.8661 76.3837 85.9916 76.6266 85.6276 76.9906 85.2614 78.0521 84.3841 78.2898 84.0558 78.7549 83.4355 80.6833 84.0892 78.873 82.7603 80.5035 82.4193 83.2067 83.024 79.4123 81.7426 82.2373 80.6395 82.9772 81.2114 83.0418 80.4478 83.9867 80.2465 84.295 79.8721 84.1813 79.6463 84.5899 79.4947 84.6441 79.4078 85.2139 78.8752 85.7502 78.2274 86.5673 77.9556 86.9529 77.5648 87.2203 77.342 87.3035 76.8881 87.9067 76.7789 88.1028 76.4959 89.2594 76.6942 89.1198 75.7761 90.1152 75.2731 90.3232 74.4374 90.8974 74.4657 91.5853 74.5541 91.9366 73.976 92.2798 73.9721 92.7315 73.84 93.1274 73.7463 93.3235 73.7403 93.5835 73.4908 93.7893 73.5414 94.3813 72.9692 94.7438 72.9183 95.0246 72.8813 95.8581 72.7677 96.1538 72.7111 97.0251 72.8409 97.3869 72.5813 97.843 72.6471 98.0725 72.3982 98.386 72.3646 98.9736 72.337 100.752 73.1378 101.204 72.2992 102.894 72.406 103.455 71.9659 103.793 72.0977 104.304 71.866 104.654 71.747 105.736 71.9264 106.272 71.9933 108.224 71.4351 108.781 71.861 110.193 72.5237 110.101 72.7082 110.471 73.5543 110.66 85.7628 110.829 79.7035 109.795 86.0273 109.984 86.037 109.172 86.1142 108.778 85.644 108.046 85.4442 107.998 85.2525 107.635 85.3216 107.224 85.6618 103.628 83.466 102.574 85.1901 99.6771 85.2837 99.0672 85.8891 99.839 86.2836 99.3383 86.4626 99.2804 86.9053 99.0159 87.1 99.0145 88.0055 99.007 93.3919 98.6126 93.9995 98.0807 94.365 98.1854 94.905 97.7449 95.093 97.7412 96.8156 97.8667 98.2144 96.6366 99.2054 96.6789 101.059 96.4019 100.48 96.0683 101.377 95.7222 101.747 95.2386 102.553 94.5916 102.687 94.2521 102.767 94.0314 102.989 93.946 103.212 93.6637 103.507 93.2188 103.52 93.0717 103.706 92.5183 104.342 91.9708 103.966 90.7577 104.385 89.6836 104.196 88.6614 104.713 86.6662 104.728 85.748 104.301 84.1895 105.795 84.4807 106.502 82.5738 106.272 82.351 107.03 82.2269 107.273 81.4128 107.122 76.7328 105.186 76.6184 107.973 73.8207 108.297 73.5564 108.388 73.5913 108.79 73.4966 110.601 71.8894 109.135 73.695 110.593 70.8807 110.864 70.4543 110.927 70.2618 111.103 70.0138 111.043 69.5795 111.259 69.1103 111.319 68.8829 111.358 68.7093 111.742 68.266 111.551 68.031 111.924 66.565 112.036 65.179 111.062 64.1405 110.888 63.8621 110.615 63.8091 110.462 63.3336 109.305 62.2165 110.009 61.9453 108.678 61.1921 108.741 60.9491 108.608 60.5252 108.356 60.3702 107.503 59.5309 107.221 59.2082 106.571 58.2287 105.675 57.038 106.207 57.8354 105.357 56.336 103.562 51.5573 105.196 57.6638 104.682 54.1344 104.288 53.0633 104.156 52.3509 104.006 51.9328 103.903 51.3235 103.441 50.5177 103.362 50.289 102.806 47.0797 102.201 46.1369 102.474 44.1818 102.547 43.7925 102.29 43.2854 102.137 43.081 102.268 42.3366 101.255 38.7956 101.048 38.3836 99.7536 37.0471 100.913 37.305 99.3094 37.079 96.0973 35.4346 100.421 35.4594 97.2027 34.1156 97.1068 33.7061 97.112 33.4173 96.5876 33.0298 96.341 32.9593 95.919 32.7576 95.7259 32.517 91.6685 31.0333 95.2007 31.5303 92.863 30.9935 92.1409 30.6592 92.0436 30.0257 91.4322 30.2318 91.1604 29.8109 90.7258 29.9679 90.0156 29.7489 88.469 29.5761 88.3517 27.9275 87.1535 28.2255 86.8065 28.119 86.089 27.6616 85.1827 27.7727 84.9881 27.595 84.6092 27.826 84.3366 27.5388 83.1985 27.0579 82.2782 26.6352 81.5346 27.1312 80.9463 26.7954 79.7146 27.3927 79.3016 26.9725 78.9985 27.1186 78.4072 27.0441 77.9006 26.7686 77.7498 26.707 77.417 26.3995 77.0545 26.5348 76.5144 26.7177 75.5903 26.6353 75.6832 26.8889Z" stroke="#FFFFFF" stroke-width="1.36188" stroke-linejoin="round" stroke-miterlimit="10" stroke-opacity="0.4" fill="none" fill-rule="evenodd" transform="matrix(1 0 0 1.00265 307.354 605.448)"/><path d="M63.569 27.9041C62.3889 28.041 60.959 28.2931 59.961 28.4458 58.986 28.6492 57.0748 29.2583 57.0748 29.2584 56.4894 29.6106 55.7829 29.7311 55.1506 30.3418 54.9989 30.5306 54.8198 30.7234 54.6695 30.8834 54.3685 31.0978 54.0587 31.2249 53.7075 31.4251 49.9316 33.6072 52.3023 32.0109 50.3401 33.5919 50.1407 33.8779 49.8957 34.2755 49.6185 34.6753 49.287 35.2087 48.6564 36.3003 48.6564 36.3004 48.2415 37.6863 48.3041 37.7813 46.9728 39.2797 46.676 39.5543 46.4893 39.8195 46.2512 40.0923 45.8052 40.9429 44.7211 42.3458 44.0865 43.3424 43.5162 44.2869 42.8231 45.1536 42.1623 46.0509 41.9162 46.4073 41.4407 47.1343 41.4407 47.1343 40.8056 49.1726 41.8016 46.5777 40.4786 48.7594 40.3769 49.0144 40.2966 49.27 40.2381 49.5719 39.6939 53.6382 40.0701 48.2569 40.2381 53.0929 40.3022 57.5348 40.2814 56.4426 39.5165 59.0516 39.4338 59.5524 39.3619 59.9405 39.276 60.4059 39.1326 60.7648 39.1155 61.0611 39.0355 61.4892 38.3597 65.6073 39.0983 62.5048 38.5544 64.7394 38.2598 67.4417 38.0822 67.4803 38.795 70.698 38.8843 70.9688 39.1311 71.099 39.276 71.2397 39.3458 71.5047 39.3808 71.8122 39.5165 72.0522 39.9143 72.8419 40.1502 73.1552 40.7192 73.6774 40.8293 74.1532 40.8926 74.8022 40.9597 75.3021 41.0893 75.8496 41.275 76.3102 41.4407 76.9275 41.5202 78.0135 41.7498 78.8745 41.9217 79.907 41.996 80.2613 42.0101 80.7167 42.1623 80.9901 42.2718 81.3793 42.6481 81.6884 42.8839 82.0739 43.117 82.8494 43.1256 83.2134 43.6054 83.9696 44.1608 84.7006 44.366 85.6767 45.0486 86.4069 45.8328 87.279 45.7537 87.2508 46.9728 88.3034 47.2074 88.5322 47.4378 88.6934 47.6944 88.8449 48.0564 89.0663 48.4852 89.2074 48.897 89.3864 49.1412 89.5194 49.3407 89.8232 49.6185 89.928 49.9017 90.0312 50.2661 90.1486 50.5806 90.1991 51.0663 90.3633 52.0238 90.7406 52.0238 90.7406 52.2643 90.9984 52.5348 91.2168 52.7454 91.5533 52.9458 91.82 53.0696 92.1015 53.2264 92.366 53.4665 92.7367 53.64 93.1289 53.9479 93.4491 53.9719 93.9052 54.0628 94.3791 54.1885 94.8033 54.2521 95.0937 54.4265 95.3418 54.429 95.6159 54.5688 97.323 54.1192 98.7344 54.1885 100.22 54.068 101.522 53.6955 101.372 53.2264 102.387 53.1082 102.64 53.105 102.946 52.9859 103.2 52.859 103.519 51.8963 104.969 51.7833 105.095 51.6166 105.304 51.2798 105.395 51.0617 105.638 50.1196 106.49 51.5903 105.661 50.0996 106.992 49.8897 107.214 49.5813 107.366 49.378 107.533 49.1056 107.802 48.9225 108.055 48.6564 108.346 49.4321 108.869 49.552 109.168 50.5806 109.159 55.8048 108.938 59.9985 107.845 65.0121 108.346 65.0399 105.307 65.1847 100.492 65.2526 97.2413 65.3251 96.6344 65.5152 96.0951 65.7337 95.6159 66.2796 94.0203 66.1364 94.1674 67.1768 92.6364 70.3349 88.4965 66.1609 93.5753 68.6199 90.7406 68.7854 90.4769 68.9375 90.1597 69.101 89.928 69.5908 89.3835 70.1218 88.9147 70.5441 88.3034 70.7242 88.0449 70.8728 87.7069 71.0252 87.4907 71.2844 87.0145 71.5117 86.476 71.7468 86.1365 73.0289 84.5505 72.08 86.3096 72.9494 84.5112 73.228 83.9741 73.3828 83.4021 73.671 82.8858 73.8508 82.377 74.3877 81.8027 74.6328 81.2612 74.8453 80.8155 75.034 80.3022 75.3549 79.907 75.5094 79.569 75.8548 79.1939 76.0762 78.8232 77.1407 76.2515 75.7122 78.2973 77.2788 76.6563 77.394 76.2351 77.4036 75.782 77.5195 75.3021 77.6369 74.8475 77.9221 74.609 78.0001 74.219 78.1108 73.5151 78.1368 72.7506 78.2408 72.0522 78.272 71.7726 78.3938 71.5232 78.4815 71.2397 78.4228 70.0622 78.3456 69.0518 78.2408 67.9896 78.2475 67.5187 78.1361 67.14 78.0001 66.6354 77.7646 66.1821 77.5225 65.9713 77.2788 65.5519 77.1949 65.2875 77.1095 65.0387 77.0381 64.7394 76.9245 64.2892 77.0196 63.8108 76.7975 63.3851 76.6682 63.0734 76.455 62.8357 76.3168 62.5726 76.1475 62.1837 75.9447 61.8705 75.8355 61.4892 75.5844 61.0204 75.597 60.5593 75.3549 60.135 75.2115 59.8011 74.9782 59.3613 74.8735 59.0516 74.768 58.8196 74.7301 58.4765 74.6328 58.2391 74.1126 56.2757 74.2159 56.735 73.9115 54.9889 73.6485 48.9207 73.5913 49.7273 73.9115 43.0716 73.8817 42.5849 74.0347 42.2279 74.152 41.7173 74.183 41.1317 74.3802 40.6859 74.3929 40.0923 74.8564 37.1791 74.4085 38.8394 74.8735 37.1129 74.612 35.1598 74.8193 33.6256 74.6328 31.9669 74.5726 31.5818 74.2874 31.1957 74.152 30.8834 74.0172 30.6478 74.0648 30.2654 73.9115 30.0709 73.752 29.8278 73.4038 29.7298 73.1899 29.5292 72.6225 28.9679 72.5374 28.4935 71.7468 28.175 71.4533 28.0856 71.0701 28.0055 70.7847 27.9041 70.5425 27.81 70.3239 27.7528 70.0631 27.6333 69.6302 27.5042 69.3643 27.1511 68.8605 27.0916 66.538 27.013 64.5013 28.2991 62.1258 28.0101" fill="#62BAE2" fill-rule="evenodd" transform="matrix(1 0 0 1.00265 307.354 605.448)"/><path d="M63.569 27.9041C62.2603 28.1451 61.205 28.3157 59.961 28.4458 58.986 28.6492 57.0748 29.2584 57.0748 29.2584 56.3955 29.6012 55.5192 29.8184 55.1506 30.3418 54.989 30.5111 54.8533 30.748 54.6695 30.8834 54.3368 31.0441 54.0736 31.1997 53.7075 31.4251 49.7598 33.4826 52.6514 32.2167 50.3401 33.5919 50.0859 33.9615 49.865 34.2866 49.6185 34.6753 49.287 35.2087 48.6564 36.3004 48.6564 36.3004 48.2321 37.7019 48.2909 37.7822 46.9728 39.2797 46.727 39.602 46.428 39.7674 46.2512 40.0923 45.7217 40.8461 44.7806 42.3992 44.0865 43.3424 43.6427 44.1743 42.6876 45.3151 42.1623 46.0509 41.9162 46.4073 41.4407 47.1344 41.4407 47.1343 41.1935 48.8379 41.8918 46.7984 40.4786 48.7594 40.2948 49.0074 40.2961 49.2577 40.2381 49.5719 39.6414 53.7247 40.2576 48.6807 40.2381 53.0929 40.2835 57.3548 40.4277 56.5313 39.5165 59.0516 39.453 59.5155 39.4052 59.89 39.276 60.4059 39.1558 60.748 39.0848 61.1242 39.0355 61.4892 38.5988 64.9254 39.0328 62.5017 38.5544 64.7394 38.2504 67.4501 38.0708 67.441 38.795 70.698 38.8378 70.9603 39.0927 71.0171 39.276 71.2397 39.4054 71.5089 39.3967 71.808 39.5165 72.0522 39.9415 72.7812 40.2759 73.1571 40.7192 73.6774 40.7801 74.2069 40.9098 74.7613 40.9597 75.3021 41.1877 75.8607 41.3625 76.435 41.4407 76.9275 41.6315 77.96 41.7082 78.8863 41.9217 79.907 41.9887 80.3089 42.013 80.6937 42.1623 80.9901 42.3703 81.4239 42.6653 81.6794 42.8839 82.0739 43.1202 82.8873 43.1685 83.1681 43.6054 83.9696 43.9597 84.8625 44.4495 85.7027 45.0486 86.4069 45.8298 87.2716 45.7724 87.2337 46.9728 88.3034 47.2236 88.4906 47.4437 88.6934 47.6944 88.8449 48.0614 89.0559 48.5109 89.1628 48.897 89.3864 49.1458 89.5402 49.3262 89.8477 49.6185 89.928 49.9276 90.078 50.266 90.0959 50.5806 90.1991 51.0663 90.3633 52.0238 90.7406 52.0238 90.7406 52.2947 91.0051 52.5705 91.251 52.7454 91.5533 52.9265 91.7442 53.0579 92.0971 53.2264 92.366 53.4239 92.7055 53.6624 93.1051 53.9479 93.4491 53.9722 93.9438 54.0629 94.3576 54.1885 94.8033 54.2741 95.0796 54.436 95.3634 54.429 95.6159 54.3772 97.2896 54.2606 98.6118 54.1885 100.22 54.0251 101.573 53.6204 101.377 53.2264 102.387 53.098 102.612 53.0937 102.943 52.9859 103.2 52.8523 103.506 51.8644 104.957 51.7833 105.095 51.5843 105.322 51.3194 105.393 51.0617 105.638 49.8637 106.752 51.4714 105.27 50.0996 106.992 49.8829 107.239 49.6143 107.303 49.378 107.533 49.1554 107.738 48.9082 108.063 48.6564 108.346 49.3847 108.888 49.5732 109.201 50.5806 109.159 55.4348 109.057 60.3768 108.697 65.0121 108.346 64.7546 104.307 65.2762 100.882 65.2526 97.2413 65.2156 96.7257 65.5616 96.2266 65.7337 95.6159 66.3036 93.995 66.121 94.1867 67.1768 92.6364 69.0879 88.8003 65.5957 94.5782 68.6199 90.7406 68.7678 90.5156 68.8576 90.1724 69.101 89.928 69.5555 89.4191 70.1425 88.9511 70.5441 88.3034 70.6855 88.004 70.8661 87.7626 71.0252 87.4907 71.3333 87.0294 71.4589 86.5703 71.7468 86.1365 72.6397 84.4874 72.0556 85.9716 72.9494 84.5112 73.1834 83.9986 73.3501 83.3397 73.671 82.8858 74.0155 82.3012 74.3372 81.7738 74.6328 81.2612 74.8765 80.7472 75.0874 80.3245 75.3549 79.907 75.5495 79.5304 75.9061 79.2377 76.0762 78.8232 77.1109 76.4476 75.8125 78.2282 77.2788 76.6563 77.4051 76.2582 77.3598 75.8154 77.5195 75.3021 77.5923 74.8661 77.9251 74.5927 78.0001 74.219 78.1554 73.6032 78.1026 72.7766 78.2408 72.0522 78.2973 71.7706 78.3686 71.5079 78.4815 71.2397 78.2044 70.245 78.379 68.9882 78.2408 67.9896 78.1821 67.5594 78.1606 67.0611 78.0001 66.6354 77.8724 66.2168 77.4437 65.9348 77.2788 65.5519 77.1637 65.2911 77.102 65.0261 77.0381 64.7394 76.9126 64.2444 76.9371 63.864 76.7975 63.3851 76.7046 63.0233 76.4468 62.8354 76.3168 62.5726 76.1363 62.2731 75.9863 61.859 75.8355 61.4892 75.6773 61.0686 75.4967 60.5248 75.3549 60.135 75.1907 59.7979 75.0228 59.4777 74.8735 59.0516 74.7502 58.8005 74.6729 58.5023 74.6328 58.2391 74.0533 56.2739 74.2859 56.7265 73.9115 54.9889 73.6502 49.0585 73.5624 49.5894 73.9115 43.0716 73.918 42.6001 74.0448 42.1931 74.152 41.7173 74.1868 41.0879 74.2911 40.6521 74.3929 40.0923 74.6209 37.2779 74.5489 38.8453 74.8735 37.1129 74.7866 35.359 74.7896 33.6823 74.6328 31.9669 74.5793 31.5773 74.3149 31.2595 74.152 30.8834 74.0713 30.6061 74.0934 30.2609 73.9115 30.0709 73.7171 29.7771 73.3849 29.7332 73.1899 29.5292 72.5595 29.0052 72.4652 28.5432 71.7468 28.175 71.3941 28.0472 71.1515 28.014 70.7847 27.9041 70.5551 27.8076 70.3049 27.7495 70.0631 27.6333 69.6599 27.4713 69.2291 27.1733 68.8605 27.0916 66.5925 26.8871 64.2598 27.8233 62.1258 28.0101" stroke="#62BAE2" stroke-width="1.87258" stroke-linejoin="round" stroke-miterlimit="10" fill="none" fill-rule="evenodd" transform="matrix(1 0 0 1.00265 307.354 605.448)"/><path d="M18.9054 24.4915C18.9054 16.4422 25.4306 9.91697 33.48 9.91697L105.06 9.91697C113.11 9.91697 119.635 16.4422 119.635 24.4915L119.635 96.592C119.635 104.641 113.11 111.167 105.06 111.167L33.48 111.167C25.4306 111.167 18.9054 104.641 18.9054 96.592Z" stroke="#0F6C99" stroke-width="6.12847" stroke-linejoin="round" stroke-miterlimit="10" fill="none" fill-rule="evenodd" transform="matrix(1 0 0 1.00265 307.354 605.448)"/><path d="M15.0797 36.0279 22.4339 36.0279 22.4339 84.09 15.0797 84.09Z" fill="#FFFFFF" transform="matrix(1 0 0 1.00265 307.354 605.448)"/><path d="M18.7568 25.9624 18.7569 37.1744" stroke="#0F6C99" stroke-width="6.12847" stroke-linecap="round" stroke-linejoin="round" stroke-miterlimit="10" fill="none" fill-rule="evenodd" transform="matrix(1 0 0 1.00265 307.354 605.448)"/><path d="M18.7568 82.27 18.7569 93.4817" stroke="#0F6C99" stroke-width="6.12847" stroke-linecap="round" stroke-linejoin="round" stroke-miterlimit="10" fill="none" fill-rule="evenodd" transform="matrix(1 0 0 1.00265 307.354 605.448)"/><path d="M8.72842 47.0592 28.454 47.0592" stroke="#30A4CF" stroke-width="6.12847" stroke-linecap="round" stroke-linejoin="round" stroke-miterlimit="10" fill="none" fill-rule="evenodd" transform="matrix(1 0 0 1.00265 307.354 605.448)"/><path d="M14.5969 59.9104 28.0898 59.9104" stroke="#30A4CF" stroke-width="6.12847" stroke-linecap="round" stroke-linejoin="round" stroke-miterlimit="10" fill="none" fill-rule="evenodd" transform="matrix(1 0 0 1.00265 307.354 605.448)"/><path d="M19.3511 71.7959 27.2324 71.7959" stroke="#30A4CF" stroke-width="6.12847" stroke-linecap="round" stroke-linejoin="round" stroke-miterlimit="10" fill="none" fill-rule="evenodd" transform="matrix(1 0 0 1.00265 307.354 605.448)"/><text fill="#0F6C99" font-family="Britannic Bold,Britannic Bold_MSFontService,sans-serif" font-weight="700" font-size="761" transform="matrix(0.0742844 0 0 0.0744811 438.039 670)">HIBIO<tspan font-family="Calibri,Calibri_MSFontService,sans-serif" font-size="147" x="54.9999" y="228.246">Hyperspectral</tspan><tspan font-family="Calibri,Calibri_MSFontService,sans-serif" font-size="147" x="938.43" y="228.246">Imaging</tspan><tspan font-family="Calibri,Calibri_MSFontService,sans-serif" font-size="147" x="54.9999" y="402.787">and Biomedical</tspan><tspan font-family="Calibri,Calibri_MSFontService,sans-serif" font-size="147" x="1025.52" y="402.787">Research Laboratory</tspan></text></g></svg>